<svg id="Layer_1" data-name="Layer 1" xmlns="http://www.w3.org/2000/svg" viewBox="0 0 730 158"><defs><style>.cls-1,.cls-3{fill:#1a2631;}.cls-2{fill:none;stroke:#1a2631;stroke-linecap:round;stroke-linejoin:round;stroke-width:2.5px;}.cls-3{font-size:71.33px;font-family:MyriadPro-Bold, Myriad Pro;font-weight:700;letter-spacing:0.01em;}.cls-4{letter-spacing:0em;}.cls-5{letter-spacing:0.02em;}.cls-6{letter-spacing:0em;}</style></defs><title>Logo dark</title><rect class="cls-1" x="61.48" y="60.59" width="35.48" height="35.48" transform="translate(158.44 156.65) rotate(180)"/><rect class="cls-1" x="20" y="60.59" width="35.48" height="35.48" transform="translate(75.48 156.65) rotate(180)"/><rect class="cls-1" x="61.48" y="20.21" width="35.48" height="35.48" transform="translate(158.44 75.9) rotate(180)"/><polygon class="cls-2" points="147.03 46.41 127.51 36.76 137.57 2 156.21 16.93 147.03 46.41"/><polygon class="cls-2" points="147.03 46.41 127.51 36.76 100.63 31.97 122.53 41.65 147.03 46.41"/><polygon class="cls-2" points="100.63 31.97 127.51 36.76 137.57 2 109.96 2.56 100.63 31.97"/><rect class="cls-1" x="20" y="20.21" width="35.48" height="35.48" transform="translate(75.48 75.9) rotate(180)"/><rect class="cls-1" x="102.74" y="60.59" width="35.48" height="35.48" transform="translate(240.95 156.65) rotate(180)"/><rect class="cls-1" x="61.48" y="102.04" width="35.48" height="35.48" transform="translate(158.44 239.55) rotate(180)"/><rect class="cls-1" x="20" y="102.04" width="35.48" height="35.48" transform="translate(75.48 239.55) rotate(180)"/><rect class="cls-1" x="102.74" y="102.04" width="35.48" height="35.48" transform="translate(240.95 239.55) rotate(180)"/><text class="cls-3" transform="translate(174.13 104.15)">S<tspan class="cls-4" x="39.02" y="0">c</tspan><tspan class="cls-5" x="71.19" y="0">r</tspan><tspan class="cls-6" x="99.57" y="0">y Engineering</tspan></text></svg>